<svg width="27" height="27" viewBox="0 0 27 27" fill="none" xmlns="http://www.w3.org/2000/svg">
<path d="M21.375 10.125H24.75M21.375 15.75H24.75M21.375 21.375H23.625M18 6.75L17.099 20.2645C17.0201 21.4481 16.9806 22.04 16.725 22.4887C16.4999 22.8838 16.1604 23.2014 15.7512 23.3998C15.2865 23.625 14.6933 23.625 13.507 23.625H8.99299C7.80668 23.625 7.21352 23.625 6.74875 23.3998C6.33957 23.2014 6.00006 22.8838 5.77498 22.4887C5.51933 22.04 5.47987 21.4481 5.40097 20.2645L4.5 6.75M2.25 6.75H20.25M15.75 6.75L15.4456 5.83658C15.1505 4.95141 15.0029 4.50882 14.7293 4.1816C14.4876 3.89265 14.1774 3.66899 13.8268 3.53113C13.4298 3.375 12.9634 3.375 12.0303 3.375H10.4697C9.53668 3.375 9.07015 3.375 8.6732 3.53113C8.32266 3.66899 8.01234 3.89265 7.7707 4.1816C7.49706 4.50882 7.34953 4.95141 7.05447 5.83658L6.75 6.75M13.5 11.25V19.125M9 11.25L8.99994 19.1248" stroke="#FF3E3E" stroke-width="2" stroke-linecap="round" stroke-linejoin="round"/>
</svg>
