<svg width="10" height="26" viewBox="0 0 10 26" fill="none" xmlns="http://www.w3.org/2000/svg">
<path d="M5 13.0001L4.9875 13.0001M5 20.8001L4.9875 20.8001M5 5.2001L4.9875 5.2001M3.75 13.0001C3.75 12.2821 4.30963 11.7001 5 11.7001C5.69038 11.7001 6.25 12.2821 6.25 13.0001C6.25 13.7181 5.69038 14.3001 5 14.3001C4.30963 14.3001 3.75 13.7181 3.75 13.0001ZM3.75 5.2001C3.75 4.48211 4.30963 3.9001 5 3.9001C5.69038 3.9001 6.25 4.48211 6.25 5.2001C6.25 5.91809 5.69038 6.5001 5 6.5001C4.30963 6.5001 3.75 5.91809 3.75 5.2001ZM3.75 20.8001C3.75 20.0821 4.30963 19.5001 5 19.5001C5.69038 19.5001 6.25 20.0821 6.25 20.8001C6.25 21.5181 5.69037 22.1001 5 22.1001C4.30962 22.1001 3.75 21.5181 3.75 20.8001Z" stroke="white" stroke-width="2" stroke-linecap="round" stroke-linejoin="round"/>
</svg>
